<svg width="16" height="20" viewBox="0 0 16 20" fill="none" xmlns="http://www.w3.org/2000/svg">
<path d="M8.25688 0.450094L8.56408 0.237564C8.71769 0.131716 8.88238 0.0600383 9.05648 0.0258659C9.22971 -0.00913874 9.40978 -0.00830663 9.59069 0.0291997C9.77587 0.0675392 9.94228 0.137548 10.0856 0.237563C10.229 0.338412 10.351 0.468424 10.4466 0.625951L10.6514 0.960165C10.7009 1.04101 10.77 1.10102 10.8494 1.13519C10.9271 1.16936 11.0192 1.17936 11.1148 1.16103L11.4886 1.09018C11.6678 1.05601 11.8461 1.05768 12.0194 1.09435C12.1934 1.13019 12.3573 1.20353 12.5083 1.31021C12.6585 1.41689 12.7797 1.54525 12.8702 1.69444C12.9598 1.84113 13.0161 2.00697 13.04 2.18868L13.0929 2.60124C13.1065 2.69292 13.1441 2.77376 13.2004 2.83462C13.2576 2.89629 13.3361 2.94213 13.4291 2.9638L13.8183 3.05381C13.9966 3.09549 14.1579 3.16883 14.2987 3.27051C14.4404 3.37302 14.5581 3.50303 14.6503 3.6589C14.7433 3.81559 14.8005 3.97977 14.821 4.1498C14.8414 4.31816 14.8252 4.4907 14.7732 4.66406L14.6486 5.07662C14.6221 5.16496 14.623 5.25414 14.6486 5.33332C14.675 5.41166 14.7279 5.48501 14.803 5.54085L15.1384 5.79339C15.2844 5.90257 15.4004 6.03342 15.4849 6.18011C15.5702 6.32846 15.6223 6.4935 15.6428 6.67268C15.6624 6.85104 15.6453 7.02273 15.5941 7.18525C15.5429 7.34861 15.4567 7.49947 15.339 7.63615L15.0556 7.96286C14.9942 8.0337 14.9583 8.11455 14.9498 8.19624C14.9413 8.27791 14.9592 8.36459 15.0036 8.44628L15.2118 8.81967C15.298 8.97552 15.35 9.14138 15.3663 9.3139C15.3825 9.48476 15.362 9.65646 15.3057 9.82647C15.2493 9.99566 15.1623 10.1473 15.0471 10.2765C14.9327 10.4041 14.7911 10.5082 14.6247 10.5866L14.2466 10.7633C14.163 10.8024 14.0964 10.8633 14.0538 10.9366C14.0111 11.0075 13.9923 11.095 14 11.1883L14.0358 11.6034C14.0512 11.7818 14.0299 11.9543 13.9735 12.1185C13.9164 12.2827 13.8268 12.4335 13.703 12.5669C13.5827 12.6952 13.4453 12.7969 13.2934 12.8678L15.9414 17.3467C16.0617 17.5501 15.9909 17.811 15.7827 17.9285C15.7246 17.961 15.6623 17.9793 15.6 17.9843L13.5357 18.1569L12.3513 19.8171C12.2139 20.0104 11.9416 20.058 11.7437 19.9238C11.6822 19.8821 11.6353 19.8271 11.6037 19.7662L8.70995 14.8714C8.65107 14.909 8.59048 14.9406 8.52647 14.9681C8.36519 15.0373 8.18853 15.0723 7.99993 15.0723C7.81475 15.074 7.63811 15.039 7.47339 14.969C7.3104 14.8989 7.16361 14.7964 7.03647 14.6639L6.77193 14.3855C6.70622 14.3164 6.62515 14.2713 6.54066 14.2538C6.45618 14.2363 6.36316 14.2455 6.27355 14.2822L5.92879 14.4264C5.75897 14.4972 5.58403 14.5322 5.40568 14.5314C5.22562 14.5306 5.04983 14.493 4.88172 14.4205C4.71361 14.348 4.56682 14.2455 4.44479 14.1155C4.32532 13.9896 4.23401 13.8379 4.17256 13.6646L4.03688 13.2845C4.0053 13.1945 3.95154 13.122 3.88327 13.0745C3.815 13.0262 3.72967 12.997 3.63665 12.9945L1.156 17.1918L2.74071 17.3235C2.87554 17.3343 2.99159 17.4043 3.06329 17.5052L3.973 18.7795L5.70194 15.855C5.82226 15.6516 6.08936 15.5824 6.2976 15.6999C6.50582 15.8175 6.57664 16.0783 6.45633 16.2817L4.39628 19.7664C4.36471 19.8272 4.31777 19.8814 4.25633 19.9231C4.05835 20.0572 3.78613 20.0097 3.64874 19.8164L2.46425 18.1561L0.399949 17.9836C0.337652 17.9778 0.275357 17.9603 0.217327 17.9269C0.00910478 17.8094 -0.0617168 17.5486 0.0585997 17.3452L2.70659 12.8654C2.55213 12.7937 2.4139 12.6929 2.29442 12.5645C2.17153 12.4295 2.08022 12.2795 2.0239 12.1178C1.96672 11.9544 1.94539 11.7819 1.95989 11.6035L1.99488 11.1809C2.00256 11.0867 1.98294 10.9984 1.94112 10.9276C1.90016 10.8575 1.83274 10.7975 1.7457 10.7575L1.37363 10.5842C1.20979 10.5083 1.06813 10.4041 0.951213 10.2741C0.835154 10.1474 0.748109 9.99576 0.690935 9.82406C0.634613 9.65571 0.614132 9.484 0.629492 9.31399C0.644853 9.14147 0.696908 8.97645 0.783099 8.81892L0.993029 8.43888C1.03826 8.3572 1.05533 8.27052 1.04679 8.18884C1.0374 8.10466 1.00242 8.02298 0.941826 7.95379L0.66193 7.63291C0.542459 7.49706 0.456266 7.34619 0.404209 7.18284C0.353005 7.02115 0.335939 6.84946 0.354714 6.67194C0.373488 6.49358 0.426398 6.32855 0.511734 6.17937C0.597073 6.03018 0.713131 5.89933 0.858195 5.79015L1.19869 5.53345C1.27293 5.47761 1.32499 5.40426 1.35145 5.32592C1.37705 5.24757 1.3779 5.15923 1.35059 5.07005L1.22685 4.66417C1.17394 4.49081 1.15773 4.31828 1.17821 4.14825C1.19869 3.97989 1.25587 3.8157 1.34803 3.65901C1.44019 3.50315 1.55796 3.37229 1.69707 3.27062C1.83532 3.1681 1.9966 3.09559 2.17922 3.05226L2.57518 2.95975C2.66649 2.93808 2.745 2.89224 2.80219 2.83056C2.85851 2.76805 2.89606 2.68637 2.90801 2.59386L2.95921 2.18964C2.9814 2.01128 3.03857 1.84625 3.12988 1.6954C3.21949 1.54704 3.34067 1.41785 3.49085 1.31117C3.6419 1.20366 3.80489 1.13115 3.97558 1.09365C4.15052 1.05614 4.32973 1.05447 4.50979 1.08781L4.88869 1.15949C4.98427 1.17699 5.07643 1.16699 5.1558 1.13199C5.23346 1.09781 5.30173 1.03864 5.35037 0.957792L5.55091 0.62857C5.64564 0.472714 5.76767 0.342704 5.91273 0.240183C6.0561 0.138502 6.22166 0.0676582 6.40598 0.0293187C6.58689 -0.00818652 6.7678 -0.0098529 6.94274 0.0251515C7.11768 0.0601561 7.28324 0.131 7.43514 0.235183L7.74833 0.451044C7.82769 0.506052 7.9173 0.533557 8.00264 0.533557C8.08969 0.533557 8.17844 0.506052 8.25695 0.451044L8.25688 0.450094ZM8.39769 5.29241L8.86961 6.33838L10.0678 6.4734C10.3067 6.50007 10.4791 6.71177 10.4518 6.94513C10.4381 7.06348 10.375 7.16601 10.2854 7.23351L9.43455 7.9753L9.67351 9.13131C9.72044 9.36133 9.56769 9.58554 9.33216 9.63139C9.22378 9.65223 9.11711 9.63222 9.02836 9.58222L8.01456 9.0063L6.96491 9.58471C6.75583 9.69973 6.49043 9.62722 6.37268 9.42302C6.31892 9.32884 6.30526 9.22299 6.3266 9.12465L6.57322 8.00615L5.68486 7.20937C5.50821 7.05018 5.49626 6.78097 5.65926 6.60761C5.73777 6.5251 5.84188 6.47843 5.94855 6.47176L7.10144 6.35841L7.60323 5.28743C7.70308 5.07406 7.96164 4.97988 8.18011 5.07739C8.28166 5.1224 8.35587 5.20073 8.39769 5.29241ZM5.98607 4.23224C5.77955 4.35309 5.51244 4.28725 5.3887 4.08555C5.26496 3.88385 5.33238 3.62298 5.5389 3.50213C5.90414 3.2896 6.30267 3.12208 6.72338 3.00955C7.133 2.89954 7.56139 2.84036 7.99831 2.84036C9.32615 2.84036 10.5286 3.36626 11.398 4.21556C12.2685 5.06569 12.8061 6.24003 12.8061 7.53594C12.8061 8.83279 12.2676 10.0071 11.398 10.8563C10.5276 11.7065 9.32605 12.2315 7.99831 12.2315C6.67058 12.2315 5.46807 11.7056 4.59859 10.8563C3.72814 10.0062 3.19052 8.83269 3.19052 7.53594C3.19052 7.10838 3.25111 6.69082 3.36376 6.28993C3.47982 5.87904 3.65134 5.48982 3.86895 5.13309C3.99269 4.9314 4.25981 4.86555 4.46632 4.9864C4.67283 5.10725 4.74025 5.36813 4.61651 5.56983C4.43816 5.86154 4.29821 6.17909 4.20434 6.5133C4.11388 6.83502 4.06524 7.17841 4.06524 7.53596C4.06524 8.59696 4.50557 9.55793 5.21728 10.2529C5.92899 10.948 6.91293 11.3781 7.9992 11.3781C9.08546 11.3781 10.0695 10.948 10.7811 10.2529C11.4927 9.55785 11.9332 8.59688 11.9332 7.53596C11.9332 6.47505 11.4928 5.51399 10.7811 4.81898C10.0694 4.12396 9.08546 3.69382 7.9992 3.69382C7.6331 3.69382 7.2815 3.74133 6.95295 3.82967C6.61075 3.92135 6.28561 4.05804 5.98693 4.23223L5.98607 4.23224ZM12.3632 12.9977H12.3598C12.2659 12.9994 12.1789 13.0294 12.1089 13.0785C12.0398 13.1277 11.9852 13.2002 11.9545 13.2886L11.8239 13.6619C11.7633 13.8353 11.6729 13.987 11.5534 14.1145C11.4314 14.2429 11.2854 14.3454 11.1165 14.4187C10.9466 14.4929 10.7709 14.5304 10.5933 14.5321C10.4158 14.5337 10.2392 14.4987 10.0685 14.4279L9.71694 14.282C9.62819 14.2454 9.53517 14.237 9.44982 14.2545C9.42166 14.2604 9.3935 14.2695 9.36619 14.2812L12.0253 18.7785L12.935 17.5041C13.0067 17.4033 13.1228 17.3333 13.2576 17.3225L14.8423 17.1908L12.3632 12.9969L12.3632 12.9977ZM12.7379 12.1392C12.8019 12.1376 12.8607 12.1251 12.9128 12.1017C12.9631 12.0792 13.0109 12.0434 13.0536 11.9975C13.098 11.9475 13.1296 11.8975 13.1466 11.8467C13.1637 11.7959 13.1705 11.7375 13.1645 11.6717L13.1287 11.2566C13.1057 10.9899 13.1662 10.7332 13.2951 10.5132C13.4231 10.2931 13.6202 10.1123 13.8703 9.99475L14.2483 9.81806C14.3055 9.79139 14.3533 9.75638 14.3908 9.71471C14.4267 9.6747 14.4557 9.62303 14.4753 9.56135C14.4958 9.50051 14.5026 9.44217 14.4984 9.38883C14.4941 9.33715 14.4745 9.28214 14.4429 9.22464L14.2355 8.85125C14.1058 8.61537 14.0555 8.35868 14.0811 8.10863C14.1075 7.85776 14.2108 7.61606 14.3883 7.41187L14.6716 7.08517C14.7134 7.03683 14.7433 6.98599 14.7595 6.93431C14.7757 6.88264 14.78 6.8243 14.774 6.76179C14.7672 6.70011 14.7501 6.64427 14.7219 6.59593C14.6938 6.54759 14.6545 6.50342 14.6042 6.46591L14.2688 6.21337C14.0512 6.05001 13.8984 5.83416 13.8182 5.59495C13.7388 5.35409 13.7337 5.09237 13.8114 4.83567L13.936 4.42311C13.9539 4.3631 13.9599 4.30476 13.953 4.24809C13.9462 4.19308 13.9266 4.13807 13.895 4.0839C13.8626 4.02806 13.8233 3.98388 13.779 3.95221C13.7354 3.92054 13.6808 3.89637 13.6168 3.8822L13.2268 3.79219C12.9571 3.72968 12.725 3.59216 12.5509 3.40297C12.376 3.21294 12.2608 2.97208 12.2266 2.70288L12.1754 2.29447C12.1669 2.2328 12.1481 2.17612 12.1183 2.12695C12.0901 2.07944 12.0483 2.03694 11.9954 1.99943C11.9425 1.96276 11.8887 1.93775 11.8349 1.92609C11.7795 1.91275 11.718 1.91358 11.6523 1.92609L11.282 1.99693C11.008 2.04944 10.7358 2.01693 10.4943 1.91108C10.2545 1.8069 10.048 1.63021 9.90462 1.396L9.69981 1.06179C9.66653 1.00678 9.62557 0.962605 9.57948 0.930933C9.53084 0.898429 9.47537 0.875091 9.41393 0.861756C9.34822 0.848421 9.28678 0.847587 9.23046 0.858422C9.17413 0.869257 9.11952 0.894261 9.06575 0.930932L8.75855 1.14346C8.52899 1.30182 8.26616 1.38183 8.00247 1.38183C7.73793 1.38183 7.47508 1.30349 7.24639 1.14596L6.9332 0.930098C6.87859 0.892592 6.82312 0.867588 6.7685 0.856754C6.71388 0.845919 6.65244 0.847585 6.58673 0.860921C6.52358 0.874256 6.46811 0.897594 6.42118 0.930098C6.3751 0.960936 6.33499 1.00511 6.3017 1.06012L6.10116 1.38934C5.95865 1.62438 5.75127 1.8019 5.51063 1.90692C5.26997 2.01193 4.9986 2.04527 4.72552 1.99443L4.34662 1.92275C4.28176 1.91025 4.22032 1.91025 4.16656 1.92192C4.10938 1.93442 4.05476 1.95943 4.00271 1.9961C3.95065 2.0336 3.90884 2.07694 3.88068 2.12445C3.85337 2.17029 3.83459 2.22697 3.82691 2.29198L3.77571 2.69619C3.74158 2.96456 3.62722 3.20543 3.45398 3.39545C3.27904 3.58465 3.04692 3.72216 2.77725 3.78551L2.38128 3.87802C2.32154 3.89219 2.26693 3.91719 2.21999 3.95136C2.17391 3.98304 2.13466 4.02721 2.10308 4.08138C2.07151 4.13472 2.05188 4.18973 2.04591 4.24557C2.03908 4.30142 2.04505 4.35976 2.06383 4.41977L2.18757 4.82565C2.26607 5.08152 2.26096 5.34406 2.18159 5.58493C2.10223 5.82497 1.94947 6.04166 1.73272 6.20501L1.39222 6.46171C1.34102 6.50005 1.30176 6.54422 1.27445 6.5909C1.248 6.6384 1.23008 6.69424 1.22325 6.75675C1.21642 6.8201 1.22154 6.87844 1.23861 6.93178C1.25482 6.98262 1.28469 7.03346 1.32736 7.08263L1.60555 7.40351C1.78391 7.60854 1.88803 7.8494 1.91533 8.09778C1.94264 8.34865 1.89229 8.60618 1.76258 8.84123L1.55265 9.22127C1.52107 9.27878 1.5023 9.33379 1.49803 9.38546C1.49291 9.4388 1.50145 9.49798 1.52193 9.55966C1.54155 9.618 1.57057 9.66884 1.60727 9.71051C1.64225 9.75135 1.69004 9.78552 1.75063 9.81303L2.1227 9.98639C2.37017 10.1014 2.56731 10.2831 2.69702 10.5031C2.82672 10.7232 2.88817 10.9799 2.86598 11.2457L2.83099 11.6683C2.82587 11.7333 2.83185 11.7917 2.84977 11.8433C2.86769 11.8967 2.89841 11.9467 2.94193 11.9934C2.98801 12.0409 3.0358 12.0767 3.0853 12.0984C3.1365 12.1209 3.19538 12.1334 3.26024 12.135C3.38995 12.1376 3.51881 12.1401 3.64851 12.1426C3.92671 12.1484 4.18443 12.2351 4.39607 12.3859C4.60942 12.5376 4.77327 12.751 4.86372 13.006L4.9977 13.386C5.01732 13.4452 5.04805 13.4969 5.08645 13.5377C5.12229 13.5777 5.17264 13.6119 5.23408 13.6377C5.29638 13.6644 5.35611 13.6786 5.40988 13.6786C5.4662 13.6786 5.52593 13.6661 5.58823 13.6402L5.93299 13.4961C6.19071 13.3885 6.46464 13.3644 6.72236 13.4177C6.98008 13.4711 7.22072 13.6019 7.41103 13.8028L7.67556 14.0811C7.72079 14.1287 7.77029 14.1645 7.82234 14.1862C7.87269 14.2078 7.93243 14.2187 8.0007 14.2187C8.0647 14.2203 8.12529 14.2087 8.17905 14.1853C8.23026 14.1637 8.2789 14.1287 8.32328 14.0811C8.40947 13.9895 8.49651 13.8986 8.5827 13.8069C8.773 13.6052 9.01366 13.4735 9.27221 13.4194C9.52908 13.3652 9.80301 13.3894 10.0616 13.4969L10.4132 13.6427C10.4746 13.6686 10.5344 13.6811 10.5898 13.6802C10.6453 13.6802 10.705 13.6661 10.7648 13.6402C10.8254 13.6144 10.8757 13.5802 10.9133 13.5402C10.9508 13.4986 10.9815 13.4469 11.002 13.3869L11.1326 13.0135C11.2222 12.7551 11.3869 12.5418 11.5977 12.3909C11.8076 12.2409 12.067 12.1525 12.3469 12.1467C12.4783 12.1434 12.6106 12.1409 12.742 12.1375L12.7379 12.1392ZM6.9938 15.3706C6.86664 15.5698 6.59783 15.6315 6.39302 15.5073C6.18907 15.3831 6.12591 15.1206 6.25307 14.9206L6.25563 14.9164C6.38278 14.7172 6.65159 14.6555 6.8564 14.7797C7.06036 14.9039 7.12352 15.1664 6.99635 15.3665L6.9938 15.3706Z" fill="#0F1015"/>
</svg>
